<svg xmlns="http://www.w3.org/2000/svg" viewBox="0 0 800 800" preserveAspectRatio="xMidYMid slice" role="img" aria-label="Mur intérieur en schiste">
  <rect width="800" height="800" fill="#dcdad6"/>
  <g stroke="#c7c4bd" stroke-width="3">
    <rect x="8" y="8" width="220" height="34" rx="2" fill="#8f8d88"/>
    <rect x="236" y="8" width="150" height="34" rx="2" fill="#a3a09a"/>
    <rect x="394" y="8" width="200" height="34" rx="2" fill="#79776f"/>
    <rect x="602" y="8" width="190" height="34" rx="2" fill="#97948d"/>
    <rect x="8" y="50" width="160" height="30" rx="2" fill="#a3a09a"/>
    <rect x="176" y="50" width="240" height="30" rx="2" fill="#807e77"/>
    <rect x="424" y="50" width="170" height="30" rx="2" fill="#9c998f"/>
    <rect x="602" y="50" width="190" height="30" rx="2" fill="#88857d"/>
    <rect x="8" y="88" width="210" height="36" rx="2" fill="#79776f"/>
    <rect x="226" y="88" width="180" height="36" rx="2" fill="#a09d94"/>
    <rect x="414" y="88" width="200" height="36" rx="2" fill="#88857d"/>
    <rect x="622" y="88" width="170" height="36" rx="2" fill="#96938b"/>
    <rect x="8" y="132" width="150" height="30" rx="2" fill="#9c998f"/>
    <rect x="166" y="132" width="230" height="30" rx="2" fill="#807e77"/>
    <rect x="404" y="132" width="160" height="30" rx="2" fill="#a3a09a"/>
    <rect x="572" y="132" width="220" height="30" rx="2" fill="#79776f"/>
    <rect x="8" y="170" width="240" height="36" rx="2" fill="#88857d"/>
    <rect x="256" y="170" width="160" height="36" rx="2" fill="#9c998f"/>
    <rect x="424" y="170" width="210" height="36" rx="2" fill="#807e77"/>
    <rect x="642" y="170" width="150" height="36" rx="2" fill="#a09d94"/>
  </g>
  <g stroke="#c7c4bd" stroke-width="3" transform="translate(0 208)">
    <rect x="8" y="8" width="220" height="34" rx="2" fill="#8f8d88"/>
    <rect x="236" y="8" width="150" height="34" rx="2" fill="#a3a09a"/>
    <rect x="394" y="8" width="200" height="34" rx="2" fill="#79776f"/>
    <rect x="602" y="8" width="190" height="34" rx="2" fill="#97948d"/>
    <rect x="8" y="50" width="160" height="30" rx="2" fill="#a3a09a"/>
    <rect x="176" y="50" width="240" height="30" rx="2" fill="#807e77"/>
    <rect x="424" y="50" width="170" height="30" rx="2" fill="#9c998f"/>
    <rect x="602" y="50" width="190" height="30" rx="2" fill="#88857d"/>
    <rect x="8" y="88" width="210" height="36" rx="2" fill="#79776f"/>
    <rect x="226" y="88" width="180" height="36" rx="2" fill="#a09d94"/>
    <rect x="414" y="88" width="200" height="36" rx="2" fill="#88857d"/>
    <rect x="622" y="88" width="170" height="36" rx="2" fill="#96938b"/>
    <rect x="8" y="132" width="150" height="30" rx="2" fill="#9c998f"/>
    <rect x="166" y="132" width="230" height="30" rx="2" fill="#807e77"/>
    <rect x="404" y="132" width="160" height="30" rx="2" fill="#a3a09a"/>
    <rect x="572" y="132" width="220" height="30" rx="2" fill="#79776f"/>
    <rect x="8" y="170" width="240" height="36" rx="2" fill="#88857d"/>
    <rect x="256" y="170" width="160" height="36" rx="2" fill="#9c998f"/>
    <rect x="424" y="170" width="210" height="36" rx="2" fill="#807e77"/>
    <rect x="642" y="170" width="150" height="36" rx="2" fill="#a09d94"/>
  </g>
  <g stroke="#c7c4bd" stroke-width="3" transform="translate(0 416)">
    <rect x="8" y="8" width="220" height="34" rx="2" fill="#8f8d88"/>
    <rect x="236" y="8" width="150" height="34" rx="2" fill="#a3a09a"/>
    <rect x="394" y="8" width="200" height="34" rx="2" fill="#79776f"/>
    <rect x="602" y="8" width="190" height="34" rx="2" fill="#97948d"/>
    <rect x="8" y="50" width="160" height="30" rx="2" fill="#a3a09a"/>
    <rect x="176" y="50" width="240" height="30" rx="2" fill="#807e77"/>
    <rect x="424" y="50" width="170" height="30" rx="2" fill="#9c998f"/>
    <rect x="602" y="50" width="190" height="30" rx="2" fill="#88857d"/>
    <rect x="8" y="88" width="210" height="36" rx="2" fill="#79776f"/>
    <rect x="226" y="88" width="180" height="36" rx="2" fill="#a09d94"/>
    <rect x="414" y="88" width="200" height="36" rx="2" fill="#88857d"/>
    <rect x="622" y="88" width="170" height="36" rx="2" fill="#96938b"/>
  </g>
</svg>
