<svg xmlns="http://www.w3.org/2000/svg" viewBox="0 0 800 1000" preserveAspectRatio="xMidYMid slice" role="img" aria-label="Parement en pierre naturelle">
  <rect width="800" height="1000" fill="#e7ded0"/>
  <g stroke="#d5c9b4" stroke-width="5">
    <rect x="10" y="10" width="300" height="120" rx="4" fill="#b3a58c"/>
    <rect x="318" y="10" width="240" height="120" rx="4" fill="#a3937a"/>
    <rect x="566" y="10" width="224" height="120" rx="4" fill="#c1b294"/>
    <rect x="10" y="138" width="200" height="130" rx="4" fill="#96876f"/>
    <rect x="218" y="138" width="330" height="130" rx="4" fill="#bcac8d"/>
    <rect x="556" y="138" width="234" height="130" rx="4" fill="#ab9c81"/>
    <rect x="10" y="276" width="270" height="120" rx="4" fill="#c1b294"/>
    <rect x="288" y="276" width="210" height="120" rx="4" fill="#9d8e74"/>
    <rect x="506" y="276" width="284" height="120" rx="4" fill="#b3a58c"/>
    <rect x="10" y="404" width="230" height="140" rx="4" fill="#a89877"/>
    <rect x="248" y="404" width="300" height="140" rx="4" fill="#c4b596"/>
    <rect x="556" y="404" width="234" height="140" rx="4" fill="#8f8067"/>
    <rect x="10" y="552" width="320" height="120" rx="4" fill="#b8a988"/>
    <rect x="338" y="552" width="200" height="120" rx="4" fill="#a3937a"/>
    <rect x="546" y="552" width="244" height="120" rx="4" fill="#c1b294"/>
    <rect x="10" y="680" width="250" height="140" rx="4" fill="#9d8e74"/>
    <rect x="268" y="680" width="280" height="140" rx="4" fill="#b3a58c"/>
    <rect x="556" y="680" width="234" height="140" rx="4" fill="#ab9c81"/>
    <rect x="10" y="828" width="290" height="162" rx="4" fill="#c4b596"/>
    <rect x="308" y="828" width="240" height="162" rx="4" fill="#96876f"/>
    <rect x="556" y="828" width="234" height="162" rx="4" fill="#b8a988"/>
  </g>
</svg>
