<svg xmlns="http://www.w3.org/2000/svg" viewBox="0 0 800 1000" preserveAspectRatio="xMidYMid slice" role="img" aria-label="Extérieur et jardin en pierre naturelle">
  <rect width="800" height="1000" fill="#e3ddd1"/>
  <!-- ciel/fond haut -->
  <rect width="800" height="300" fill="#ece6da"/>
  <!-- muret en pierre sèche -->
  <g stroke="#cbc0ac" stroke-width="4">
    <rect x="10" y="300" width="120" height="70" rx="5" fill="#b3a58c"/>
    <rect x="134" y="300" width="180" height="70" rx="5" fill="#a3937a"/>
    <rect x="318" y="300" width="140" height="70" rx="5" fill="#c1b294"/>
    <rect x="462" y="300" width="200" height="70" rx="5" fill="#9d8e74"/>
    <rect x="666" y="300" width="124" height="70" rx="5" fill="#b8a988"/>
    <rect x="10" y="374" width="170" height="66" rx="5" fill="#c4b596"/>
    <rect x="184" y="374" width="120" height="66" rx="5" fill="#96876f"/>
    <rect x="308" y="374" width="190" height="66" rx="5" fill="#b3a58c"/>
    <rect x="502" y="374" width="130" height="66" rx="5" fill="#ab9c81"/>
    <rect x="636" y="374" width="154" height="66" rx="5" fill="#a3937a"/>
    <rect x="10" y="444" width="150" height="66" rx="5" fill="#9d8e74"/>
    <rect x="164" y="444" width="200" height="66" rx="5" fill="#bcac8d"/>
    <rect x="368" y="444" width="130" height="66" rx="5" fill="#a89877"/>
    <rect x="502" y="444" width="170" height="66" rx="5" fill="#c1b294"/>
    <rect x="676" y="444" width="114" height="66" rx="5" fill="#8f8067"/>
  </g>
  <!-- couvertine -->
  <rect x="0" y="290" width="800" height="14" fill="#8f8067"/>
  <!-- pas japonais sur sol -->
  <g stroke="#cbc0ac" stroke-width="4">
    <ellipse cx="180" cy="640" rx="95" ry="42" fill="#b3a58c"/>
    <ellipse cx="400" cy="720" rx="105" ry="46" fill="#a89877"/>
    <ellipse cx="630" cy="820" rx="98" ry="44" fill="#bcac8d"/>
    <ellipse cx="250" cy="860" rx="90" ry="40" fill="#9d8e74"/>
  </g>
  <rect x="0" y="514" width="800" height="486" fill="#d9d2c3" opacity="0.55"/>
  <g stroke="#cbc0ac" stroke-width="4">
    <ellipse cx="180" cy="640" rx="95" ry="42" fill="#b3a58c"/>
    <ellipse cx="400" cy="720" rx="105" ry="46" fill="#a89877"/>
    <ellipse cx="630" cy="820" rx="98" ry="44" fill="#bcac8d"/>
    <ellipse cx="250" cy="880" rx="90" ry="40" fill="#9d8e74"/>
  </g>
</svg>
